# xmcd CD database file
#
# Track frame offsets:
#	150
#	18836
#	46712
#	64967
#	92409
#	110940
#	133558
#	155927
#	181597
#	199631
#
# Disc length: 2851 seconds
#
# Revision: 0
# Processed by: cddbd v1.5.2PL0 Copyright (c) Steve Scherf et al.
# Submitted via: CDex 1.51
#
DISCID=7f0b210a
DTITLE=Fredrik Kronkvist 3 - In the Raw
DYEAR=2006
DGENRE=Jazz
TTITLE0=The impaler
TTITLE1=Love is a many splendoured thing
TTITLE2=Gazzeloni
TTITLE3=What are you doing the rest of your life?
TTITLE4=Mean Gene
TTITLE5=Lotus blossom
TTITLE6=Breezer
TTITLE7=Cannonballism
TTITLE8=In the raw
TTITLE9=Lover
EXTD=YEAR: 2006
EXTT0=
EXTT1=
EXTT2=
EXTT3=
EXTT4=
EXTT5=
EXTT6=
EXTT7=
EXTT8=
EXTT9=
PLAYORDER=
